<svg xmlns="http://www.w3.org/2000/svg" width="714" height="171" fill="none" xmlns:v="https://vecta.io/nano"><g clip-path="url(#A)"><g fill="#fff"><path d="M252.114 50.236c-.192-.45 0-.642.514-.642h13.489s.578.193.771.642l16.187 50.744c.321.707 1.027.707 1.349 0l16.186-50.744c.193-.45.45-.642.771-.642h13.232c.514 0 .707.193.642.642l-24.023 71.427c-4.432 13.168-8.543 18.371-20.49 18.371h-17.728c-.45 0-.643-.257-.643-.707v-10.919c0-.45.193-.642.643-.642h15.03c5.524 0 7.387-2.506 7.387-6.295 0-2.57-1.156-5.653-2.12-8.929l-21.068-62.434-.129.129zm93.652-1.927c19.399 0 31.346 13.81 31.346 33.787 0 1.927-.192 3.34-.514 4.496-.192.45-.385.642-.642.642h-46.441c-.449 0-.642.193-.642.642 0 8.222 6.68 15.544 16.829 15.544 7.323 0 12.012-2.698 14.453-7.451.192-.45.449-.642.899-.642h13.232c.45 0 .642.193.642.514v.129c-1.541 6.359-4.946 11.241-10.277 14.709s-11.626 5.203-18.885 5.203c-19.141 0-31.281-13.681-31.281-33.722s11.947-33.787 31.281-33.787v-.064zM329.58 76.122h31.988c.449 0 .642-.257.642-.707 0-6.166-4.817-14.517-16.444-14.517s-16.829 9.121-16.829 14.517c0 .45.193.642.643.707zM385.655 24.8c0-.45.257-.642.706-.642h12.397c.45 0 .643.193.643.642v89.219c0 .45-.193.643-.643.643h-12.397c-.449 0-.642-.193-.706-.643V24.8zm26.336 0c0-.45.257-.642.707-.642h12.397c.449 0 .642.193.642.642v89.219c0 .45-.193.643-.642.643h-12.397c-.45 0-.643-.193-.707-.643V24.8zm54.341 23.509c20.041 0 31.988 13.81 31.988 33.787s-11.947 33.722-31.988 33.722-31.796-13.682-31.796-33.722 11.755-33.787 31.796-33.787zM453.1 97.64c3.083 3.918 7.515 5.845 13.232 5.845s10.406-1.927 13.489-5.845 4.625-9.057 4.625-15.48-1.478-11.626-4.561-15.416-7.579-5.781-13.553-5.781-10.149 1.927-13.232 5.781c-3.148 3.854-4.689 8.993-4.689 15.416s1.541 11.626 4.689 15.48zm45.927-47.275c-.193-.514 0-.771.706-.771h12.654s.642.257.835.771l10.663 50.616c.193.707.963.707 1.285 0l12.332-50.616c.193-.514.514-.771 1.028-.771h17.6c.514 0 .835.257 1.028.771l12.332 50.616c.193.514.964.835 1.285 0l10.663-50.616c0-.514.385-.771.899-.771h12.461c.578 0 .835.257.771.771l-15.095 63.591c-.192.45-.449.643-.835.643h-19.141s-.45-.193-.643-.643l-11.947-50.487c-.193-.707-1.156-.707-1.349 0l-11.819 50.487c-.192.45-.449.643-.835.643h-19.013s-.578-.193-.771-.643l-15.159-63.59h.065zm98.919 45.991c0-.45.193-.642.643-.642h17.407c.449 0 .642.193.642.642v17.6c0 .449-.193.642-.642.642h-17.407c-.45 0-.643-.193-.643-.642v-17.6zm55.819-21.198h13.232c2.762 0 4.047-2.055 4.047-3.597 0-3.983-1.156-10.663-14.966-10.663-5.203 0-8.929 1.028-11.113 2.955s-3.404 4.304-3.468 7.066c0 .45-.193.642-.643.642h-12.461c-.449 0-.642-.193-.642-.642 0-15.095 13.36-22.674 28.262-22.674 8.929 0 15.93 1.927 21.069 5.909s7.708 9.956 7.708 17.985v26.336c0 2.441 1.67 4.239 4.432 4.239h2.826c.45 0 .643.193.643.642v10.534c0 .45-.193.643-.643.643h-5.138c-7.195 0-10.856-2.056-13.104-6.038-.321-.514-.707-.578-1.156-.129-1.606 1.67-4.24 3.405-7.901 4.946-3.661 1.606-8.222 2.441-13.682 2.441-8.671 0-15.03-1.927-19.269-5.781s-6.36-8.8-6.36-14.709c0-11.305 9.378-20.169 28.135-20.169l.192.064zm-2.569 28.262c14.452 0 19.912-8.35 19.912-15.544v-.899c0-.45-.192-.642-.642-.706h-16.315c-12.654 0-14.71 5.074-14.71 9.057 0 3.597 2.762 8.093 11.819 8.093h-.064zm46.632-76.436c0-.45.193-.642.642-.642h14.196c.449 0 .642.193.642.642v14.453c0 .45-.193.642-.642.642H698.47c-.449 0-.642-.193-.642-.642V26.984zm.642 23.252c0-.45.257-.642.707-.642h12.397c.449 0 .642.193.642.642v63.719c0 .45-.193.643-.642.643h-12.397c-.45 0-.643-.193-.707-.643V50.236z"/></g><g clip-path="url(#B)" fill="#f2cb67"><path d="M107.423 170.419H45.892c-4.165 0-6.772-4.488-4.701-8.079L130.466 6.692c2.168-3.785 6.211-6.114 10.572-6.114h61.53c4.165 0 6.772 4.489 4.701 8.08l-89.275 155.648c-2.168 3.785-6.211 6.114-10.571 6.114zM0 10.284v41.247c0 5.362 4.36 9.705 9.744 9.705h51.154L85.256 85.5V10.284c0-5.362-4.36-9.705-9.743-9.705H9.744C4.36.579 0 4.922 0 10.284z"/></g></g><defs><clipPath id="A"><path fill="#fff" d="M0 0h714v171H0z"/></clipPath><clipPath id="B"><path fill="#fff" transform="translate(0 .579)" d="M0 0h208v169.842H0z"/></clipPath></defs></svg>