<svg width="714" height="171" viewBox="0 0 714 171" fill="none" xmlns="http://www.w3.org/2000/svg">
<g clip-path="url(#clip0_678_7897)">
<path d="M252.114 50.2361C251.922 49.7865 252.114 49.5938 252.628 49.5938H266.117C266.117 49.5938 266.695 49.7865 266.888 50.2361L283.075 100.98C283.396 101.687 284.102 101.687 284.424 100.98L300.61 50.2361C300.803 49.7865 301.06 49.5938 301.381 49.5938H314.613C315.127 49.5938 315.32 49.7865 315.255 50.2361L291.232 121.663C286.8 134.831 282.689 140.034 270.742 140.034H253.014C252.564 140.034 252.371 139.777 252.371 139.327V128.408C252.371 127.958 252.564 127.766 253.014 127.766H268.044C273.568 127.766 275.431 125.26 275.431 121.471C275.431 118.901 274.275 115.818 273.311 112.542L252.243 50.1076L252.114 50.2361Z" fill="black"/>
<path d="M345.766 48.3091C365.165 48.3091 377.112 62.1192 377.112 82.0957C377.112 84.0227 376.92 85.4358 376.598 86.592C376.406 87.0417 376.213 87.2344 375.956 87.2344H329.515C329.066 87.2344 328.873 87.4271 328.873 87.8767C328.873 96.0986 335.553 103.421 345.702 103.421C353.025 103.421 357.714 100.723 360.155 95.9701C360.347 95.5205 360.604 95.3278 361.054 95.3278H374.286C374.736 95.3278 374.928 95.5205 374.928 95.8416V95.9701C373.387 102.329 369.982 107.211 364.651 110.679C359.32 114.148 353.025 115.882 345.766 115.882C326.625 115.882 314.485 102.201 314.485 82.16C314.485 62.1192 326.432 48.3733 345.766 48.3733V48.3091ZM329.58 76.122H361.568C362.017 76.122 362.21 75.8651 362.21 75.4155C362.21 69.2491 357.393 60.8988 345.766 60.8988C334.14 60.8988 328.937 70.0199 328.937 75.4155C328.937 75.8651 329.13 76.0578 329.58 76.122Z" fill="black"/>
<path d="M385.655 24.7996C385.655 24.3499 385.912 24.1572 386.361 24.1572H398.758C399.208 24.1572 399.401 24.3499 399.401 24.7996V114.019C399.401 114.469 399.208 114.662 398.758 114.662H386.361C385.912 114.662 385.719 114.469 385.655 114.019V24.7996Z" fill="black"/>
<path d="M411.991 24.7996C411.991 24.3499 412.248 24.1572 412.698 24.1572H425.095C425.544 24.1572 425.737 24.3499 425.737 24.7996V114.019C425.737 114.469 425.544 114.662 425.095 114.662H412.698C412.248 114.662 412.055 114.469 411.991 114.019V24.7996Z" fill="black"/>
<path d="M466.332 48.3091C486.373 48.3091 498.32 62.1192 498.32 82.0957C498.32 102.072 486.373 115.818 466.332 115.818C446.291 115.818 434.536 102.136 434.536 82.0957C434.536 62.055 446.291 48.3091 466.332 48.3091ZM453.1 97.6401C456.183 101.558 460.615 103.485 466.332 103.485C472.049 103.485 476.738 101.558 479.821 97.6401C482.904 93.7219 484.446 88.5833 484.446 82.16C484.446 75.7366 482.968 70.5338 479.885 66.744C476.802 62.9542 472.306 60.963 466.332 60.963C460.358 60.963 456.183 62.89 453.1 66.744C449.952 70.598 448.411 75.7366 448.411 82.16C448.411 88.5833 449.952 93.7862 453.1 97.6401Z" fill="black"/>
<path d="M499.027 50.3645C498.834 49.8507 499.027 49.5938 499.733 49.5938H512.387C512.387 49.5938 513.029 49.8507 513.222 50.3645L523.885 100.98C524.078 101.687 524.848 101.687 525.17 100.98L537.502 50.3645C537.695 49.8507 538.016 49.5938 538.53 49.5938H556.13C556.644 49.5938 556.965 49.8507 557.158 50.3645L569.49 100.98C569.683 101.494 570.454 101.815 570.775 100.98L581.438 50.3645C581.438 49.8507 581.823 49.5938 582.337 49.5938H594.798C595.376 49.5938 595.633 49.8507 595.569 50.3645L580.474 113.955C580.282 114.405 580.025 114.598 579.639 114.598H560.498C560.498 114.598 560.048 114.405 559.855 113.955L547.908 63.4681C547.715 62.7615 546.752 62.7615 546.559 63.4681L534.74 113.955C534.548 114.405 534.291 114.598 533.905 114.598H514.892C514.892 114.598 514.314 114.405 514.121 113.955L498.962 50.3645H499.027Z" fill="black"/>
<path d="M597.946 96.3557C597.946 95.9061 598.139 95.7134 598.589 95.7134H615.996C616.445 95.7134 616.638 95.9061 616.638 96.3557V113.956C616.638 114.405 616.445 114.598 615.996 114.598H598.589C598.139 114.598 597.946 114.405 597.946 113.956V96.3557Z" fill="black"/>
<path d="M653.765 75.1578H666.997C669.759 75.1578 671.044 73.1024 671.044 71.5608C671.044 67.5783 669.888 60.8981 656.078 60.8981C650.875 60.8981 647.149 61.9258 644.965 63.8528C642.781 65.7798 641.561 68.1564 641.497 70.9184C641.497 71.3681 641.304 71.5608 640.854 71.5608H628.393C627.944 71.5608 627.751 71.3681 627.751 70.9184C627.751 55.8237 641.111 48.2441 656.013 48.2441C664.942 48.2441 671.943 50.1711 677.082 54.1536C682.221 58.136 684.79 64.1097 684.79 72.1389V98.4745C684.79 100.915 686.46 102.714 689.222 102.714H692.048C692.498 102.714 692.691 102.907 692.691 103.356V113.89C692.691 114.34 692.498 114.533 692.048 114.533H686.91C679.715 114.533 676.054 112.477 673.806 108.495C673.485 107.981 673.099 107.917 672.65 108.366C671.044 110.036 668.41 111.771 664.749 113.312C661.088 114.918 656.527 115.753 651.067 115.753C642.396 115.753 636.037 113.826 631.798 109.972C627.558 106.118 625.438 101.172 625.438 95.2628C625.438 83.9578 634.816 75.0936 653.573 75.0936L653.765 75.1578ZM651.196 103.42C665.648 103.42 671.108 95.0701 671.108 87.876V86.9767C671.108 86.5271 670.916 86.3344 670.466 86.2702H654.151C641.497 86.2702 639.441 91.3446 639.441 95.3271C639.441 98.9241 642.203 103.42 651.26 103.42H651.196Z" fill="black"/>
<path d="M697.828 26.9836C697.828 26.534 698.021 26.3413 698.47 26.3413H712.666C713.115 26.3413 713.308 26.534 713.308 26.9836V41.4361C713.308 41.8857 713.115 42.0784 712.666 42.0784H698.47C698.021 42.0784 697.828 41.8857 697.828 41.4361V26.9836ZM698.47 50.236C698.47 49.7864 698.727 49.5937 699.177 49.5937H711.574C712.023 49.5937 712.216 49.7864 712.216 50.236V113.955C712.216 114.405 712.023 114.598 711.574 114.598H699.177C698.727 114.598 698.534 114.405 698.47 113.955V50.236Z" fill="black"/>
<g clip-path="url(#clip1_678_7897)">
<path d="M107.423 170.419H45.8922C41.7268 170.419 39.1204 165.931 41.1909 162.34L130.466 6.69194C132.634 2.90689 136.677 0.577637 141.038 0.577637H202.568C206.733 0.577637 209.34 5.06631 207.269 8.65725L117.994 164.305C115.826 168.09 111.783 170.419 107.423 170.419Z" fill="#F2CB67"/>
<path d="M0 10.2839V51.5311C0 56.8933 4.36023 61.2364 9.74353 61.2364H60.8971L85.2559 85.4995V10.2839C85.2559 4.92171 80.8957 0.578613 75.5124 0.578613H9.74353C4.36023 0.578613 0 4.92171 0 10.2839Z" fill="#F2CB67"/>
</g>
</g>
<defs>
<clipPath id="clip0_678_7897">
<rect width="714" height="171" fill="white"/>
</clipPath>
<clipPath id="clip1_678_7897">
<rect width="208" height="169.842" fill="white" transform="translate(0 0.579102)"/>
</clipPath>
</defs>
</svg>
