<svg width="148" height="37" viewBox="0 0 148 37" fill="none" xmlns="http://www.w3.org/2000/svg">
<path d="M34.4841 13.6537V8.97321H29.6741V7.74481C29.675 7.36731 29.8254 7.00555 30.0924 6.73862C30.3593 6.47168 30.7211 6.32129 31.0986 6.32031H37.1407V12.2107C37.1407 12.5944 36.9883 12.9624 36.7169 13.2337C36.4456 13.505 36.0777 13.6574 35.694 13.6574H34.4841V13.6537Z" fill="#F9CA06"/>
<path d="M7.4481 15.8729L9.287 21.3304L9.8531 23.3173H9.916L10.4599 21.3082L12.0509 15.8692H14.8111L12.2581 22.8141C10.8521 26.6251 9.916 28.316 8.7061 29.3631C7.7071 30.2622 6.6563 30.5989 6.0051 30.6803L5.4205 28.5047C5.8645 28.4011 6.4047 28.1717 6.9264 27.7943C7.4074 27.4798 7.9735 26.8693 8.3324 26.1848C8.436 25.9998 8.4989 25.8518 8.4989 25.726C8.4989 25.6224 8.4767 25.4744 8.3509 25.2228L4.625 15.8729H7.4481ZM17.0052 21.6819C17.0681 23.5208 18.5111 24.3163 20.1428 24.3163C21.3342 24.3163 22.1926 24.1498 22.9659 23.8575L23.3433 25.6335C22.4664 25.9887 21.2528 26.281 19.7913 26.281C16.4872 26.281 14.5373 24.2312 14.5373 21.1158C14.5373 18.2927 16.2504 15.6398 19.5138 15.6398C22.8438 15.6398 23.9057 18.3593 23.9057 20.5978C23.9057 21.0788 23.8687 21.4562 23.8206 21.6856H17.0052V21.6819ZM21.4822 19.8837C21.5044 18.9439 21.09 17.3899 19.3732 17.3899C17.7822 17.3899 17.1162 18.8329 17.0052 19.88H21.4822V19.8837ZM25.1452 11.2109H27.7352V26.059H25.1452V11.2109ZM29.6777 11.2109H32.2677V26.059H29.6777V11.2109ZM43.9005 20.8679C43.9005 24.6123 41.2661 26.2847 38.6724 26.2847C35.7864 26.2847 33.5664 24.2978 33.5664 21.0307C33.5664 17.6859 35.7605 15.6361 38.8352 15.6361C41.8692 15.6361 43.8968 17.7673 43.8968 20.8642L43.9005 20.8679ZM36.223 20.9678C36.223 22.9288 37.185 24.4199 38.7538 24.4199C40.219 24.4199 41.2439 22.9769 41.2439 20.9271C41.2439 19.3361 40.5335 17.5231 38.776 17.5231C36.9556 17.5194 36.223 19.2769 36.223 20.9715V20.9678ZM46.5571 15.8729L47.6227 20.4979L48.2702 23.802H48.3072C48.5144 22.692 48.8511 21.5635 49.1434 20.5201L50.4606 15.8766H52.5511L53.8276 20.3906L54.6416 23.7946H54.6786L55.3446 20.3906L56.4731 15.8766H59.0039L55.8034 26.0627H53.4206L52.207 21.9187C51.8925 20.8531 51.6631 19.8911 51.43 18.6553H51.393C51.1858 19.9133 50.912 20.9123 50.616 21.9187L49.321 26.0627H46.916L43.919 15.8729H46.5534H46.5571ZM60.1509 18.4259L60.0658 16.0209H61.0056L61.0685 17.7784H61.1055C61.753 16.6314 62.715 15.7915 64.3689 15.7915C65.749 15.7915 66.8109 16.7165 67.2549 17.9671H67.2919C67.562 17.3825 67.9394 16.92 68.3168 16.6092C68.9643 16.0912 69.634 15.7952 70.6996 15.7952C71.6838 15.7952 73.9815 16.3391 73.9815 20.1464V26.0664H72.9825V20.2204C72.9825 17.9634 72.1056 16.624 70.3703 16.624C69.1123 16.624 68.1318 17.5638 67.7359 18.6109C67.6508 18.9069 67.5694 19.2399 67.5694 19.6099V26.0479H66.5704V19.7579C66.5704 17.9597 65.712 16.6203 64.0803 16.6203C62.7409 16.6203 61.6753 17.7081 61.2979 18.8773C61.2128 19.1733 61.1499 19.5063 61.1499 19.8615V26.0479H60.1509V18.4259ZM76.5863 20.9345C76.5863 24.135 78.3438 25.4115 80.4121 25.4115C81.8736 25.4115 82.6321 25.1155 83.1945 24.8454L83.4461 25.6224C83.0687 25.8333 82.0401 26.2699 80.2863 26.2699C77.4003 26.2699 75.6021 24.1794 75.6021 21.2305C75.6021 17.8857 77.5261 15.7915 80.1161 15.7915C83.398 15.7915 84.027 18.8847 84.027 20.3314C84.027 20.6015 84.027 20.7495 83.99 20.9382H76.59L76.5863 20.9345ZM82.9873 20.139C83.0095 18.733 82.4212 16.624 79.9977 16.624C77.7777 16.624 76.8416 18.585 76.6529 20.139H82.9873ZM85.3257 24.7381C85.8696 25.0711 86.6836 25.43 87.5827 25.43C89.1737 25.43 89.9248 24.5716 89.9248 23.5282C89.9248 22.4182 89.2588 21.8336 87.8158 21.249C86.1656 20.62 85.2628 19.7209 85.2628 18.511C85.2628 17.0458 86.4098 15.7915 88.3597 15.7915C89.2847 15.7915 90.0728 16.0616 90.5797 16.4205L90.2023 17.2345C89.8471 16.9829 89.2033 16.6277 88.1932 16.6277C86.9167 16.6277 86.247 17.4417 86.247 18.3667C86.247 19.4138 86.9574 19.8467 88.319 20.4165C89.947 21.064 90.909 21.8817 90.909 23.4061C90.909 25.1192 89.5696 26.2699 87.5198 26.2699C86.5578 26.2699 85.6328 25.9998 84.9668 25.5817L85.3294 24.7455L85.3257 24.7381ZM92.2928 24.7381C92.8367 25.0711 93.6507 25.43 94.5498 25.43C96.1408 25.43 96.8919 24.5716 96.8919 23.5282C96.8919 22.4182 96.2259 21.8336 94.7829 21.249C93.129 20.62 92.2299 19.7209 92.2299 18.511C92.2299 17.0458 93.3769 15.7915 95.3268 15.7915C96.2518 15.7915 97.0399 16.0616 97.5468 16.4205L97.1694 17.2345C96.8142 16.9829 96.1704 16.6277 95.1603 16.6277C93.8838 16.6277 93.2141 17.4417 93.2141 18.3667C93.2141 19.4138 93.9245 19.8467 95.2861 20.4165C96.9141 21.064 97.8761 21.8817 97.8761 23.4061C97.8761 25.1192 96.5367 26.2699 94.4869 26.2699C93.5249 26.2699 92.5999 25.9998 91.9339 25.5817L92.2965 24.7455L92.2928 24.7381ZM99.8186 20.9345C99.8186 24.135 101.576 25.4115 103.644 25.4115C105.11 25.4115 105.864 25.1155 106.427 24.8454L106.678 25.6224C106.301 25.8333 105.272 26.2699 103.519 26.2699C100.633 26.2699 98.8344 24.1794 98.8344 21.2305C98.8344 17.8857 100.758 15.7915 103.348 15.7915C106.63 15.7915 107.259 18.8847 107.259 20.3314C107.259 20.6015 107.259 20.7495 107.222 20.9382H99.8223L99.8186 20.9345ZM106.22 20.139C106.242 18.733 105.653 16.624 103.23 16.624C101.01 16.624 100.07 18.585 99.8852 20.139H106.22ZM108.98 18.4259L108.895 16.0209H109.834L109.897 17.8191H109.934C110.478 16.6906 111.755 15.7915 113.386 15.7915C114.348 15.7915 116.901 16.2725 116.901 20.0354V26.059H115.902V20.1168C115.902 18.2779 115.192 16.624 113.12 16.624C111.714 16.624 110.508 17.623 110.108 18.9439C110.045 19.1733 109.982 19.51 109.982 19.8208V26.0479H108.983V18.4259H108.98ZM127.358 24.5938C127.358 27.1653 126.814 28.4418 125.978 29.2373C125.053 30.1142 123.698 30.4287 122.574 30.4287C121.427 30.4287 120.146 30.1327 119.373 29.5518L119.728 28.7563C120.439 29.2151 121.423 29.5925 122.718 29.5925C124.827 29.5925 126.355 28.5047 126.355 25.5373V24.1165H126.318C125.8 25.1414 124.623 26.0627 122.825 26.0627C120.294 26.0627 118.518 23.8649 118.518 21.1269C118.518 17.6341 120.82 15.7989 123.032 15.7989C125.019 15.7989 126.003 16.8867 126.422 17.7229H126.459L126.521 16.0283H127.446C127.384 16.7794 127.361 17.5749 127.361 18.6183V24.5938H127.358ZM126.351 19.8874C126.351 19.51 126.329 19.1955 126.225 18.9032C125.807 17.7118 124.76 16.624 123.11 16.624C120.975 16.624 119.514 18.363 119.514 21.0159C119.514 23.2729 120.705 25.2191 123.066 25.2191C124.405 25.2191 125.656 24.3829 126.181 22.9621C126.289 22.617 126.345 22.258 126.348 21.8965V19.8874H126.351ZM130.036 20.9345C130.036 24.135 131.794 25.4115 133.862 25.4115C135.327 25.4115 136.082 25.1155 136.645 24.8454L136.896 25.6224C136.519 25.8333 135.49 26.2699 133.736 26.2699C130.85 26.2699 129.052 24.1794 129.052 21.2305C129.052 17.8857 130.976 15.7915 133.566 15.7915C136.852 15.7915 137.477 18.8847 137.477 20.3314C137.477 20.6015 137.477 20.7495 137.44 20.9382H130.04L130.036 20.9345ZM136.437 20.139C136.46 18.733 135.871 16.624 133.448 16.624C131.228 16.624 130.292 18.585 130.103 20.139H136.437ZM139.175 19.029L139.09 16.0172H140.015L140.052 18.0448H140.115C140.559 16.7683 141.595 15.7878 142.964 15.7878C143.112 15.7878 143.26 15.81 143.382 15.8248V16.7646C143.234 16.7424 143.086 16.7424 142.901 16.7424C141.521 16.7424 140.533 17.9338 140.267 19.5433C140.204 19.8393 140.182 20.1723 140.182 20.5053V26.0479H139.183V19.029H139.175Z" fill="#181818"/>
</svg>
