<svg width="273" height="273" viewBox="0 0 273 273" fill="none" xmlns="http://www.w3.org/2000/svg">
<rect width="273" height="273" rx="35.09" fill="#F2CB67"/>
<path d="M188.366 83.7148H153.212C151.821 83.7148 150.554 84.5014 149.926 85.7426L126.548 132.235V87.3895C126.548 85.3617 124.899 83.7148 122.868 83.7148H78.2641C76.2338 83.7148 74.585 85.3617 74.585 87.3895V119.072C74.585 121.1 76.2338 122.747 78.2641 122.747H114.957C115.51 122.759 116.027 123.005 116.372 123.435L125.268 134.189C125.379 134.324 125.403 134.521 125.329 134.693L101.2 182.672C99.9695 185.117 101.754 187.993 104.485 187.993H139.64C141.03 187.993 142.297 187.207 142.925 185.965L191.651 89.0363C192.882 86.5906 191.098 83.7148 188.366 83.7148Z" fill="black"/>
</svg>
