<svg width="211" height="38" viewBox="0 0 211 38" fill="none" xmlns="http://www.w3.org/2000/svg">
<path d="M32.172 2.7951C16.7089 4.33583 7.53698 0.687816 7.53698 0.687816C5.63057 -0.0929146 4.41612 0.00381457 4.41612 0.00381457C3.4841 0.0659966 2.74978 0.335452 2.19198 0.667089C1.04107 1.35109 0.596243 2.29764 0.596243 2.29764C-0.745304 4.43256 0.596243 6.31184 0.596243 6.31184L15.1626 26.5003C15.1626 26.4934 27.2789 9.60058 32.172 2.7951Z" fill="#FFDD00"/>
<path d="M15.2908 26.66L15.1631 26.4934L15.2837 26.667L15.2908 26.66Z" fill="#F27264"/>
<path d="M24.8713 37.9347C24.8572 37.9347 24.843 37.9278 24.8289 37.9278C23.5862 37.686 23.0284 36.8707 23.0284 36.8707L15.2898 26.6591L15.1698 26.4863C13.0516 29.4434 8.66682 35.6616 8.66682 35.6616C8.66682 35.6616 7.99604 36.7049 8.99161 37.6791C8.99161 37.6791 9.42938 37.9624 9.97306 37.9831L25.3444 37.99C25.3373 37.9969 25.0478 37.9693 24.8713 37.9347Z" fill="#F27264"/>
<path d="M15.2908 26.66L15.1631 26.4934L15.2908 26.66Z" fill="#F27264"/>
<path d="M78.928 10.0911L72.1426 25.9199L64.4323 9.55908H60.6406L70.3351 29.8304L69.8267 30.9497C69.1912 32.3315 68.471 33.2228 67.7296 33.7686C66.9883 34.3075 66.2257 34.5286 65.3784 34.5286C64.4817 34.5355 63.2814 34.3075 62.4835 33.9414L61.2267 33.3817V36.9537L61.8339 37.1541C62.9989 37.5341 64.3264 37.7828 65.4984 37.7828C66.7623 37.7828 67.8709 37.4927 68.8029 37.0159C70.208 36.3043 71.2177 35.2126 71.952 34.1348C72.6863 33.057 73.1594 31.9792 73.4771 31.2606L82.875 9.56599H79.154L78.928 10.0911Z" fill="white"/>
<path d="M93.4804 9.17191C90.4937 9.17191 87.8318 10.2705 85.9395 12.1359C84.0401 13.9945 82.9175 16.6061 82.9175 19.5425C82.9175 22.4858 84.0401 25.0836 85.9254 26.9283C87.8106 28.78 90.4443 29.8716 93.3957 29.8716C97.4344 29.8716 101.057 27.8542 102.744 24.6483L103.161 23.8607L100.181 22.4443L99.7786 23.1836C98.6206 25.3047 96.2694 26.7349 93.4733 26.7349C91.5387 26.7349 89.8512 26.0578 88.6014 24.9178C87.5635 23.9712 86.8291 22.6931 86.5255 21.1869H103.408L103.535 20.4683C103.591 20.1505 103.627 19.6738 103.627 19.1901C103.627 16.3367 102.568 13.8079 100.746 12.0185C98.9454 10.2221 96.3824 9.165 93.4804 9.17191ZM100.146 18.0916H86.4761C87.0621 14.7752 89.9006 12.3156 93.4451 12.3086C95.3868 12.3086 97.0249 13.0203 98.2252 14.2017C99.2208 15.1967 99.9057 16.537 100.146 18.0916Z" fill="white"/>
<path d="M107.08 29.4848H110.49V28.6143V0.445801H107.08V29.4848Z" fill="white"/>
<path d="M115.559 29.4848H118.962V28.6143V0.445801H115.559V29.4848Z" fill="white"/>
<path d="M132.964 9.13062C129.97 9.13062 127.315 10.2568 125.423 12.1292C123.531 14.0015 122.401 16.6201 122.408 19.5427C122.408 22.4652 123.545 25.07 125.444 26.9216C127.344 28.7732 129.999 29.8787 132.964 29.8787C135.951 29.8787 138.613 28.7871 140.519 26.9423C142.426 25.0976 143.562 22.4929 143.562 19.5496C143.562 16.627 142.44 14.0085 140.54 12.1361C138.648 10.2568 135.979 9.13062 132.964 9.13062ZM140.124 19.5427C140.124 21.5808 139.347 23.3496 138.076 24.6209C136.805 25.8852 135.047 26.6591 133.006 26.6591C130.945 26.6591 129.172 25.8921 127.902 24.6347C126.631 23.3703 125.854 21.6085 125.854 19.5427C125.854 17.4561 126.631 15.6805 127.902 14.4161C129.172 13.1517 130.945 12.3917 133.006 12.3848C135.047 12.3848 136.805 13.1448 138.076 14.4092C139.34 15.6805 140.117 17.4561 140.124 19.5427Z" fill="white"/>
<path d="M171.926 9.55908L171.707 10.1187L166.327 23.937L161.222 9.55908H158.412L153.307 23.9439L147.672 9.55908H143.923L151.993 29.485H154.733L159.831 15.114L164.858 29.485H167.605L175.668 9.55908H171.926Z" fill="white"/>
<path d="M177.072 25.45C176.409 25.45 175.816 25.7125 175.392 26.127C174.968 26.5347 174.707 27.1012 174.707 27.7161C174.707 28.3449 174.961 28.9391 175.399 29.3467C175.837 29.7612 176.437 29.9823 177.065 29.9823C177.68 29.9823 178.259 29.7405 178.675 29.3329C179.092 28.9252 179.353 28.3449 179.346 27.7092C179.353 26.4725 178.343 25.4569 177.072 25.45Z" fill="white"/>
<path d="M198.438 10.4294V12.0668C196.659 10.2774 194.174 9.165 191.328 9.17191C188.447 9.17191 185.877 10.2843 184.048 12.1428C182.22 14.0014 181.125 16.6061 181.132 19.5425C181.132 22.4581 182.213 25.0491 184.034 26.9076C185.856 28.7662 188.419 29.8785 191.3 29.8785C194.159 29.8854 196.659 28.7593 198.452 26.9422V29.4847H201.856V9.55882H198.452V10.4294H198.438ZM198.403 19.425C198.403 21.5116 197.64 23.3218 196.398 24.6C195.155 25.8851 193.439 26.652 191.448 26.6589C189.478 26.6589 187.791 25.9058 186.576 24.6483C185.362 23.3909 184.613 21.6152 184.613 19.5425C184.613 17.4698 185.369 15.6872 186.597 14.4159C187.826 13.1447 189.521 12.3846 191.491 12.3846C193.46 12.3846 195.176 13.1447 196.412 14.3952C197.64 15.6458 198.396 17.4007 198.403 19.425Z" fill="white"/>
<path d="M210.315 7.16852C210.76 6.72634 211.007 6.11833 211 5.48269C211 4.86087 210.738 4.2736 210.301 3.85214C209.863 3.43069 209.235 3.17505 208.557 3.17505C207.886 3.17505 207.272 3.43759 206.848 3.85905C206.417 4.28051 206.163 4.86087 206.163 5.48269C206.163 6.11833 206.403 6.72634 206.841 7.16852C207.272 7.6107 207.893 7.87325 208.564 7.87325C209.242 7.87325 209.877 7.6107 210.315 7.16852Z" fill="white"/>
<path d="M206.884 29.485H207.766H210.329V9.55908H206.884V29.485Z" fill="white"/>
<path d="M50.036 2.29815C49.4782 1.10978 48.5038 0.563959 47.6353 0.287594C46.8587 0.0457752 46.2161 0.031955 46.2161 0.031955C45.623 -0.00949968 44.4439 0.342866 44.4439 0.342866C39.5225 1.8076 32.1793 2.7956 32.1793 2.7956C27.2933 9.608 15.1699 26.4939 15.1699 26.4939L15.297 26.6597L23.0356 36.8714C23.0356 36.8714 23.7699 37.9561 25.4433 37.9976H25.3516C25.5069 38.0045 25.5987 37.9976 25.5987 37.9976C27.9287 37.7834 29.1644 35.8419 29.1644 35.8419L49.7536 6.31235C51.1163 4.23961 50.036 2.29815 50.036 2.29815Z" fill="#73CBF2"/>
</svg>
